<mxfile host="app.diagrams.net" modified="2024-07-10T10:11:04.818Z" agent="Mozilla/5.0 (Macintosh; Intel Mac OS X 10_15_7) AppleWebKit/537.36 (KHTML, like Gecko) Chrome/128.0.0.0 Safari/537.36 Edg/128.0.0.0" version="24.5.5" etag="-yQicXAU7ZBTFDbq7DFE" type="github">
  <diagram name="第 1 页" id="s0fKSuEpH_7HewYqoElm">
    <mxGraphModel>
      <root>
        <mxCell id="0" />
        <mxCell id="1" parent="0" />
      </root>
    </mxGraphModel>
  </diagram>
</mxfile>
